<?xml version="1.0" encoding="UTF-8" standalone="no"?>
<!DOCTYPE svg PUBLIC "-//W3C//DTD SVG 1.1//EN" "http://www.w3.org/Graphics/SVG/1.1/DTD/svg11.dtd">
<svg width="100%" height="100%" viewBox="0 0 3000 3000" version="1.1" xmlns="http://www.w3.org/2000/svg" xmlns:xlink="http://www.w3.org/1999/xlink" xml:space="preserve" xmlns:serif="http://www.serif.com/" style="fill-rule:evenodd;clip-rule:evenodd;stroke-linecap:round;stroke-linejoin:round;stroke-miterlimit:1.5;">
    <path d="M1053.5,1912.15C1057.39,1913.54 398.736,1112.8 1267.73,551.899C1270.97,549.804 681.757,648.74 605.305,1169.56C531.187,1674.48 964.895,1880.54 1053.5,1912.15Z" style="fill:rgb(243,142,113);"/>
    <g transform="matrix(1,0,0,1,190.023,36.654)">
        <ellipse cx="1309.98" cy="2398.75" rx="330.451" ry="302.686" style="fill:rgb(243,142,113);"/>
    </g>
    <path d="M1864.88,1915.16C1828.91,1927.86 1759.47,1963.78 1638.25,1965.08C1551.09,1966.02 1276.66,1901.59 1322,1763.63C1342.36,1701.68 1387.85,1659.14 1431.73,1651.19C1882.69,1569.48 1970.59,1301.27 1877.82,1113.78C1727.51,810.014 1470.13,918.684 1379.9,941.54C1049.04,1025.34 983.178,1328.11 989.462,1478.29C989.567,1480.78 984.492,1484.63 983.254,1482.47C978.683,1474.48 964.106,1420.63 961.893,1411.62C950.661,1365.91 944.132,1319.03 942.946,1271.96C941.807,1226.74 945.644,1181.39 954.512,1137.03C961.092,1104.11 970.437,1071.75 982.356,1040.37C1057.6,842.239 1158.74,708.149 1349.59,626.238C1420.62,595.749 1599.9,552.156 1677.81,551.867C1788.61,551.456 1958.4,611.154 2087.28,722.314C2270.76,880.559 2378.15,1107.57 2324.11,1399.4C2279.23,1641.81 2108.23,1829.28 1864.88,1915.16Z" style="fill:rgb(243,142,113);"/>
    <path d="M1432.74,308.012C1471.96,195.804 1501.56,172.849 1562.37,139.784C1623.19,106.72 1698.29,87.751 1745.34,97.894C1792.39,108.037 1803.55,145.158 1904.11,149.769C2004.68,154.379 2027.03,151.557 2059.24,136.803C2059.24,136.803 2038.87,181.072 1939.3,290.803C1839.74,400.534 1804.3,449.348 1587.11,453.037C1546.35,453.729 1481.79,465.552 1435.01,424.385C1413.13,405.12 1410.83,370.677 1432.74,308.012Z" style="fill:rgb(1,65,0);stroke:black;stroke-width:1px;"/>
    <path d="M1421.11,342.441C1465.5,181.417 1550.27,152.216 1611.09,119.152C1671.91,86.087 1728.11,83.321 1775.16,93.464C1822.21,103.607 1840.58,142.336 1941.15,146.946C2041.72,151.557 2027.03,151.557 2059.24,136.803C2059.24,136.803 2038.87,181.072 1939.3,290.803C1839.74,400.534 1814.91,387.567 1751.25,422.607C1687.59,457.647 1627.7,449.348 1587.11,453.037C1546.51,456.725 1473.78,450.155 1457.1,440.069C1414.07,414.059 1413.05,371.716 1421.11,342.441Z" style="fill:none;"/>
    <clipPath id="_clip1">
        <path d="M1421.11,342.441C1465.5,181.417 1550.27,152.216 1611.09,119.152C1671.91,86.087 1728.11,83.321 1775.16,93.464C1822.21,103.607 1840.58,142.336 1941.15,146.946C2041.72,151.557 2027.03,151.557 2059.24,136.803C2059.24,136.803 2038.87,181.072 1939.3,290.803C1839.74,400.534 1814.91,387.567 1751.25,422.607C1687.59,457.647 1627.7,449.348 1587.11,453.037C1546.51,456.725 1473.78,450.155 1457.1,440.069C1414.07,414.059 1413.05,371.716 1421.11,342.441Z"/>
    </clipPath>
    <g clip-path="url(#_clip1)">
        <path d="M1617.98,308.012C1617.98,308.012 1900.3,258.685 2056.59,139.784" style="fill:none;stroke:black;stroke-width:8.33px;"/>
    </g>
    <path d="M1221.81,291.203L1344.13,196.57C1344.13,196.57 1349.51,270.592 1361.92,291.761C1380.68,323.748 1405.35,361.959 1407.73,361.612C1478.84,351.223 1497.18,415.958 1454.89,454.074C1445.17,462.838 1417.22,468.997 1376.78,466.893C1372.26,466.658 1348.24,444.428 1351.69,402.668C1351.76,401.833 1325.3,397.47 1285.68,374.039C1242.57,348.543 1221.81,291.203 1221.81,291.203Z" style="fill:rgb(28,24,23);"/>
</svg>
